<?xml version="1.0" encoding="UTF-8"?>
<svg width="24px" height="24px" viewBox="0 0 24 24" version="1.1" xmlns="http://www.w3.org/2000/svg" xmlns:xlink="http://www.w3.org/1999/xlink">
    <!-- Generator: Sketch 48.2 (47327) - http://www.bohemiancoding.com/sketch -->
    <title>appearance</title>
    <desc>Created with Sketch.</desc>
    <defs></defs>
    <g id="Artboard" stroke="none" stroke-width="1" fill="none" fill-rule="evenodd" transform="translate(-700.000000, -304.000000)">
        <path d="M713.175821,316.913811 L711.270821,318.896811 L707.732821,316.460811 L712.446821,311.747811 L715.069821,314.930811 L713.175821,316.913811 Z M711.429821,309.390811 C711.193821,308.974811 710.626821,308.741811 710.083821,309.473811 C709.824821,309.822811 705.356821,314.237811 705.173821,314.456811 C704.991821,314.674811 704.879821,315.177811 705.217821,315.432811 C705.557821,315.690811 710.828821,319.365811 710.828821,319.365811 L710.603821,319.594811 C711.303821,320.323811 711.419821,320.448811 711.649821,320.457811 C712.399821,320.473811 713.684821,319.000811 714.227821,319.603811 C714.768821,320.207811 717.764821,323.582811 717.764821,323.582811 C718.274821,324.113811 719.069821,324.141811 719.579821,323.623811 C720.100821,323.102811 720.120821,322.312811 719.604821,321.775811 C719.604821,321.775811 716.862821,319.140811 715.700821,318.156811 C715.122821,317.677811 716.569821,316.105811 716.554821,315.317811 C716.546821,315.079811 716.429821,314.956811 715.731821,314.222811 L715.511821,314.465811 C715.511821,314.468811 711.665821,309.806811 711.429821,309.390811 Z" id="Shape" fill="#919BAD" fill-rule="nonzero"></path>
    </g>
</svg>