<?xml version="1.0" encoding="UTF-8"?>
<svg width="24px" height="24px" viewBox="0 0 24 24" version="1.1" xmlns="http://www.w3.org/2000/svg" xmlns:xlink="http://www.w3.org/1999/xlink">
    <!-- Generator: Sketch 48.2 (47327) - http://www.bohemiancoding.com/sketch -->
    <title>configuration</title>
    <desc>Created with Sketch.</desc>
    <defs></defs>
    <g id="Artboard" stroke="none" stroke-width="1" fill="none" fill-rule="evenodd" transform="translate(-700.000000, -352.000000)">
        <path d="M718.416,368.586 L718.406,368.578 L718.406,368.577 L712.75,362.921 C712.9,362.472 713.002,362 713.002,361.5 C713.002,359.015 710.986,357 708.5,357 C707.995,357 707.519,357.102 707.066,357.255 L709.497,359.686 L708.909,361.882 L706.713,362.47 L704.268,360.025 C704.106,360.489 704,360.981 704,361.5 C704,363.986 706.014,366 708.5,366 C709,366 709.472,365.898 709.921,365.749 L715.588,371.414 C716.369,372.195 717.635,372.195 718.416,371.414 C719.197,370.633 719.197,369.367 718.416,368.586 Z" id="Shape" fill="#919BAD" fill-rule="nonzero"></path>
    </g>
</svg>