<?xml version="1.0" encoding="UTF-8"?>
<svg width="24px" height="24px" viewBox="0 0 24 24" version="1.1" xmlns="http://www.w3.org/2000/svg" xmlns:xlink="http://www.w3.org/1999/xlink">
    <!-- Generator: Sketch 48.2 (47327) - http://www.bohemiancoding.com/sketch -->
    <title>drupal-logo</title>
    <desc>Created with Sketch.</desc>
    <defs></defs>
    <g id="Artboard" stroke="none" stroke-width="1" fill="none" fill-rule="evenodd" transform="translate(-800.000000, -241.000000)">
        <g id="drupal-8-logo" transform="translate(804.000000, 243.000000)" fill="#FFFFFF">
            <g id="drupal-8-logo-isolated">
                <path d="M7.6,11.2 C6.05388994,11.2 4.8,12.4538899 4.8,14 C4.8,15.5461101 6.05388994,16.8 7.6,16.8 C9.14611006,16.8 10.4,15.5461101 10.4,14 C10.4,12.4538899 9.14611006,11.2 7.6,11.2 Z" id="Shape" fill-rule="nonzero"></path>
                <path d="M11.1317961,10.7308079 C11.9650821,11.5937928 12.4778736,12.7638521 12.4778736,14.0556823 C12.4778736,15.6916476 11.6552707,17.1317207 10.4,18 C12.7235861,17.2905523 14.6465539,15.559288 15.5065479,13.4627111 C16.6977196,10.5613875 15.5866715,8.38010041 13.7278026,6.4 C13.78656,6.65413053 13.8186094,6.92414423 13.8186094,7.19415792 C13.8132679,8.87777271 12.6808535,10.2913738 11.1317961,10.7308079 Z" id="Shape" fill-rule="nonzero"></path>
                <path d="M8,7 C8,8.21736973 8.98686493,9.2 10.1972739,9.2 C11.4076828,9.2 12.4,8.21191067 12.4,7 C12.4,5.78263027 11.4131351,4.8 10.2027261,4.8 C8.99231722,4.8 8,5.78263027 8,7 Z" id="Shape" fill-rule="nonzero"></path>
                <path d="M3.71967664,17.2 C3.01002568,16.3454088 2.58316795,15.2420126 2.58316795,14.0358491 C2.58316795,11.5207547 4.44533477,9.44918239 6.85174518,9.16251572 C6.44089462,8.55672956 6.19545143,7.82113208 6.19545143,7.03144654 C6.19545143,4.95446541 7.85486083,3.27773585 9.9037779,3.27773585 C10.074521,3.27773585 10.2399284,3.28855346 10.4,3.31018868 C9.18879121,2.25006289 7.97758242,1.17371069 7.02248827,0 C7.50803893,5.14918239 2.3964177,3.27773585 0.502236557,8.02666667 C-0.762329447,11.207044 0.379514961,15.1392453 3.71967664,17.2 Z" id="Shape" fill-rule="nonzero"></path>
            </g>
        </g>
    </g>
</svg>