<?xml version="1.0" encoding="UTF-8"?>
<svg width="24px" height="24px" viewBox="0 0 24 24" version="1.1" xmlns="http://www.w3.org/2000/svg" xmlns:xlink="http://www.w3.org/1999/xlink">
    <!-- Generator: Sketch 48.2 (47327) - http://www.bohemiancoding.com/sketch -->
    <title>drupal-logo</title>
    <desc>Created with Sketch.</desc>
    <defs></defs>
    <g id="Artboard" stroke="none" stroke-width="1" fill="none" fill-rule="evenodd" transform="translate(-733.000000, -184.000000)">
        <g id="drupal-8-logo" transform="translate(738.000000, 188.000000)" fill="#FFFFFF">
            <g id="drupal-8-logo-isolated">
                <path d="M6.65,9.95555556 C5.2971537,9.95555556 4.2,11.0701244 4.2,12.4444444 C4.2,13.8187645 5.2971537,14.9333333 6.65,14.9333333 C8.0028463,14.9333333 9.1,13.8187645 9.1,12.4444444 C9.1,11.0701244 8.0028463,9.95555556 6.65,9.95555556 Z" id="Shape" fill-rule="nonzero"></path>
                <path d="M9.74032157,9.53849587 C10.4694469,10.3055936 10.9181394,11.3456463 10.9181394,12.4939399 C10.9181394,13.9481312 10.1983618,15.2281962 9.1,16 C11.1331378,15.3693798 12.8157347,13.8304782 13.5682294,11.9668543 C14.6105046,9.38789999 13.6383376,7.44897814 12.0118273,5.68888889 C12.06324,5.9147827 12.0912833,6.15479487 12.0912833,6.39480704 C12.0866094,7.89135352 11.0957468,9.14788782 9.74032157,9.53849587 Z" id="Shape" fill-rule="nonzero"></path>
                <path d="M7,6.22222222 C7,7.30432865 7.86350682,8.17777778 8.92261462,8.17777778 C9.98172243,8.17777778 10.85,7.29947615 10.85,6.22222222 C10.85,5.1401158 9.98649318,4.26666667 8.92738538,4.26666667 C7.86827757,4.26666667 7,5.1401158 7,6.22222222 Z" id="Shape" fill-rule="nonzero"></path>
                <path d="M3.25471706,15.2888889 C2.63377247,14.5292523 2.26027196,13.5484556 2.26027196,12.4763103 C2.26027196,10.2406709 3.88966792,8.39927324 5.99527703,8.14445842 C5.63578279,7.60598183 5.42102,6.9521174 5.42102,6.2501747 C5.42102,4.40396925 6.87300323,2.91354298 8.66580566,2.91354298 C8.81520586,2.91354298 8.95993731,2.92315863 9.1,2.94238994 C8.04019231,2.0000559 6.98038462,1.04329839 6.14467724,0 C6.56953406,4.57705101 2.09686549,2.91354298 0.439456987,7.13481481 C-0.667038266,9.96181691 0.332075591,13.4571069 3.25471706,15.2888889 Z" id="Shape" fill-rule="nonzero"></path>
            </g>
        </g>
    </g>
</svg>