<?xml version="1.0" encoding="UTF-8"?>
<svg width="24px" height="24px" viewBox="0 0 24 24" version="1.1" xmlns="http://www.w3.org/2000/svg" xmlns:xlink="http://www.w3.org/1999/xlink">
    <!-- Generator: Sketch 48.2 (47327) - http://www.bohemiancoding.com/sketch -->
    <title>extend</title>
    <desc>Created with Sketch.</desc>
    <defs></defs>
    <g id="Artboard" stroke="none" stroke-width="1" fill="none" fill-rule="evenodd" transform="translate(-700.000000, -328.000000)">
        <path d="M717.002,343.807 L717.002,346.336 C717.002,346.611 716.777,346.807 716.502,346.807 L713.502,346.807 C712.675,346.807 712.39,346.053 712.898,345.491 L713.708,344.766 C714.217,344.204 714.221,343.305 713.611,342.756 C713.228,342.412 712.584,342.028 711.5,342.028 C710.416,342.028 709.773,342.414 709.391,342.759 C708.782,343.308 708.785,344.209 709.294,344.774 L710.102,345.491 C710.611,346.053 710.325,346.807 709.5,346.807 L706.5,346.807 C706.224,346.807 706,346.614 706,346.336 L706,337.307 C706,337.031 706.224,336.807 706.5,336.807 L709.5,336.807 C710.325,336.807 710.611,336.039 710.102,335.475 L709.294,334.745 C708.784,334.182 708.781,333.28 709.391,332.731 C709.773,332.387 710.416,332 711.5,332 C712.584,332 713.228,332.387 713.611,332.731 C714.219,333.279 714.217,334.181 713.708,334.745 L712.898,335.475 C712.389,336.039 712.675,336.807 713.501,336.807 L716.501,336.807 C716.775,336.807 717.001,337.031 717.001,337.307 L717.001,339.807 C717.001,340.632 717.643,340.918 718.234,340.409 L719.005,339.601 C719.604,339.091 720.552,339.088 721.132,339.698 C721.496,340.081 721.904,340.723 721.904,341.807 C721.904,342.891 721.496,343.534 721.133,343.916 C720.553,344.52 719.604,344.52 719.006,344.013 L718.236,343.205 C717.643,342.696 717.002,342.982 717.002,343.807 Z" id="Shape" fill="#919BAD" fill-rule="nonzero"></path>
    </g>
</svg>