<?xml version="1.0" encoding="UTF-8"?>
<svg width="24px" height="24px" viewBox="0 0 24 24" version="1.1" xmlns="http://www.w3.org/2000/svg" xmlns:xlink="http://www.w3.org/1999/xlink">
    <!-- Generator: Sketch 48.2 (47327) - http://www.bohemiancoding.com/sketch -->
    <title>extend</title>
    <desc>Created with Sketch.</desc>
    <defs></defs>
    <g id="Artboard" stroke="none" stroke-width="1" fill="none" fill-rule="evenodd" transform="translate(-733.000000, -328.000000)" stroke-linecap="round" stroke-linejoin="round">
        <g id="package" transform="translate(740.000000, 334.000000)" stroke="#919BAD">
            <path d="M5.94,0.245454545 L10.3036364,2.42727273 C10.6743587,2.6114891 10.9088712,2.98966692 10.9090909,3.40363636 L10.9090909,8.60181818 C10.9088712,9.01578762 10.6743587,9.39396545 10.3036364,9.57818182 L5.94,11.76 C5.6327084,11.9137688 5.27092796,11.9137688 4.96363636,11.76 L0.6,9.57818182 C0.229632221,9.39156488 -0.00288618336,9.01108022 1.57449872e-15,8.59636364 L1.57449872e-15,3.40363636 C0.000219668341,2.98966692 0.234732175,2.6114891 0.605454545,2.42727273 L4.96909091,0.245454545 C5.27489052,0.0934990094 5.63420039,0.0934990094 5.94,0.245454545 Z" id="Shape"></path>
            <polyline id="Shape" points="0.174545455 2.81454545 5.45454545 5.45454545 10.7345455 2.81454545"></polyline>
            <path d="M5.45454545,11.8690909 L5.45454545,5.45454545" id="Shape"></path>
            <path d="M2.72727273,1.36363636 L8.18181818,4.09090909" id="Shape"></path>
        </g>
    </g>
</svg>