<?xml version="1.0" encoding="UTF-8"?>
<svg width="24px" height="24px" viewBox="0 0 24 24" version="1.1" xmlns="http://www.w3.org/2000/svg" xmlns:xlink="http://www.w3.org/1999/xlink">
    <!-- Generator: Sketch 48.2 (47327) - http://www.bohemiancoding.com/sketch -->
    <title>help</title>
    <desc>Created with Sketch.</desc>
    <defs></defs>
    <g id="Artboard" stroke="none" stroke-width="1" fill="none" fill-rule="evenodd" transform="translate(-700.000000, -400.000000)">
        <path d="M712.002,405 C708.134,405 705,408.134 705,412 C705,415.866 708.134,419 712.002,419 C715.867,419 719.002,415.866 719.002,412 C719.002,408.134 715.867,405 712.002,405 Z M715.002,410 C715.002,410.551 714.842,411.085 714.525,411.586 L714.367,411.806 C714.297,411.899 714.178,412.047 714.006,412.199 C713.838,412.347 713.656,412.498 713.461,412.646 L713.258,412.835 L713.117,412.964 L713.021,413.134 L713,413.369 L713,413.999 L710.999,413.999 L710.999,413.295 C711.025,412.899 711.077,412.565 711.203,412.296 C711.328,412.027 711.474,411.798 711.642,411.608 L711.867,411.398 L711.857,411.383 L712.033,411.243 L712.17,411.115 C712.356,410.976 712.527,410.838 712.686,410.698 L712.834,410.518 C712.932,410.366 713.002,410.195 713.002,410 C713.002,409.448 712.555,409 712.002,409 C711.449,409 711,409.448 711,410 L709,410 C709,408.343 710.343,407 712.002,407 C713.658,407 715.002,408.343 715.002,410 Z M713.252,416.619 C713.252,416.963 712.971,417.244 712.627,417.244 L711.377,417.244 C711.032,417.244 710.751,416.963 710.751,416.619 L710.751,415.381 C710.751,415.037 711.032,414.756 711.377,414.756 L712.627,414.756 C712.971,414.756 713.252,415.037 713.252,415.381 L713.252,416.619 Z" id="Shape" fill="#919BAD" fill-rule="nonzero"></path>
    </g>
</svg>