<?xml version="1.0" encoding="UTF-8"?>
<svg width="48px" height="432px" viewBox="0 0 48 432" version="1.1" xmlns="http://www.w3.org/2000/svg" xmlns:xlink="http://www.w3.org/1999/xlink">
    <!-- Generator: Sketch 49.3 (51167) - http://www.bohemiancoding.com/sketch -->
    <title>icons-light</title>
    <desc>Created with Sketch.</desc>
    <defs></defs>
    <g id="Icons-Light" stroke="none" stroke-width="1" fill="none" fill-rule="evenodd">
        <g id="Artboard">
            <g id="drupal-8-logo" transform="translate(5.000000, 4.000000)" fill="#FFFFFF" fill-rule="nonzero">
                <path d="M6.65,9.95555556 C5.2971537,9.95555556 4.2,11.0701244 4.2,12.4444444 C4.2,13.8187645 5.2971537,14.9333333 6.65,14.9333333 C8.0028463,14.9333333 9.1,13.8187645 9.1,12.4444444 C9.1,11.0701244 8.0028463,9.95555556 6.65,9.95555556 Z" id="Shape"></path>
                <path d="M9.74032157,9.53849587 C10.4694469,10.3055936 10.9181394,11.3456463 10.9181394,12.4939399 C10.9181394,13.9481312 10.1983618,15.2281962 9.1,16 C11.1331378,15.3693798 12.8157347,13.8304782 13.5682294,11.9668543 C14.6105046,9.38789999 13.6383376,7.44897814 12.0118273,5.68888889 C12.06324,5.9147827 12.0912833,6.15479487 12.0912833,6.39480704 C12.0866094,7.89135352 11.0957468,9.14788782 9.74032157,9.53849587 Z" id="Shape"></path>
                <path d="M7,6.22222222 C7,7.30432865 7.86350682,8.17777778 8.92261462,8.17777778 C9.98172243,8.17777778 10.85,7.29947615 10.85,6.22222222 C10.85,5.1401158 9.98649318,4.26666667 8.92738538,4.26666667 C7.86827757,4.26666667 7,5.1401158 7,6.22222222 Z" id="Shape"></path>
                <path d="M3.25471706,15.2888889 C2.63377247,14.5292523 2.26027196,13.5484556 2.26027196,12.4763103 C2.26027196,10.2406709 3.88966792,8.39927324 5.99527703,8.14445842 C5.63578279,7.60598183 5.42102,6.9521174 5.42102,6.2501747 C5.42102,4.40396925 6.87300323,2.91354298 8.66580566,2.91354298 C8.81520586,2.91354298 8.95993731,2.92315863 9.1,2.94238994 C8.04019231,2.0000559 6.98038462,1.04329839 6.14467724,0 C6.56953406,4.57705101 2.09686549,2.91354298 0.439456987,7.13481481 C-0.667038266,9.96181691 0.332075591,13.4571069 3.25471706,15.2888889 Z" id="Shape"></path>
            </g>
            <g id="reports" transform="translate(6.000000, 201.000000)" stroke="#FFFFFF" stroke-linecap="round" stroke-linejoin="round">
                <polyline id="Shape" points="12.8333333 0 7.29166667 5.54166667 4.375 2.625 0 7"></polyline>
                <polyline id="Shape" points="9.33333333 0 12.8333333 0 12.8333333 3.5"></polyline>
            </g>
            <g id="reports-active" transform="translate(30.000000, 201.000000)" stroke="#0677BF" stroke-linecap="round" stroke-linejoin="round">
                <polyline id="Shape" points="12.8333333 0 7.29166667 5.54166667 4.375 2.625 0 7"></polyline>
                <polyline id="Shape" points="9.33333333 0 12.8333333 0 12.8333333 3.5"></polyline>
            </g>
            <g id="people" transform="translate(5.000000, 78.000000)" stroke="#FFFFFF" stroke-linecap="round" stroke-linejoin="round">
                <path d="M10.9090909,12 L10.9090909,10.6666667 C10.9090909,9.19390733 9.68804932,8 8.18181818,8 L2.72727273,8 C1.22104159,8 1.51394049e-16,9.19390733 0,10.6666667 L0,12" id="Shape"></path>
                <ellipse id="Oval" cx="5.45454545" cy="2.66666667" rx="2.72727273" ry="2.66666667"></ellipse>
                <path d="M15,12 L15,10.6666667 C14.9990729,9.45141183 14.1579537,8.39048012 12.9545455,8.08666667" id="Shape"></path>
                <path d="M10.2272727,0.0866666667 C11.4340328,0.388779858 12.2780749,1.4519941 12.2780749,2.67 C12.2780749,3.8880059 11.4340328,4.95122014 10.2272727,5.25333333" id="Shape"></path>
            </g>
            <g id="people-active" transform="translate(29.000000, 78.000000)" stroke="#0677BF" stroke-linecap="round" stroke-linejoin="round">
                <path d="M10.9090909,12 L10.9090909,10.6666667 C10.9090909,9.19390733 9.68804932,8 8.18181818,8 L2.72727273,8 C1.22104159,8 1.51394049e-16,9.19390733 0,10.6666667 L0,12" id="Shape"></path>
                <ellipse id="Oval" cx="5.45454545" cy="2.66666667" rx="2.72727273" ry="2.66666667"></ellipse>
                <path d="M15,12 L15,10.6666667 C14.9990729,9.45141183 14.1579537,8.39048012 12.9545455,8.08666667" id="Shape"></path>
                <path d="M10.2272727,0.0866666667 C11.4340328,0.388779858 12.2780749,1.4519941 12.2780749,2.67 C12.2780749,3.8880059 11.4340328,4.95122014 10.2272727,5.25333333" id="Shape"></path>
            </g>
            <g id="extend" transform="translate(7.000000, 150.000000)" stroke="#FFFFFF" stroke-linecap="round" stroke-linejoin="round">
                <path d="M5.9895,0.245454545 L10.3895,2.42727273 C10.7633117,2.6114891 10.9997785,2.98966692 11,3.40363636 L11,8.60181818 C10.9997785,9.01578762 10.7633117,9.39396545 10.3895,9.57818182 L5.9895,11.76 C5.67964764,11.9137688 5.31485236,11.9137688 5.005,11.76 L0.605,9.57818182 C0.231545823,9.39156488 -0.00291023489,9.01108022 1.58763112e-15,8.59636364 L1.58763112e-15,3.40363636 C0.000221498911,2.98966692 0.236688277,2.6114891 0.6105,2.42727273 L5.0105,0.245454545 C5.31884794,0.0934990094 5.68115206,0.0934990094 5.9895,0.245454545 Z" id="Shape"></path>
                <polyline id="Shape" points="0.176 2.81454545 5.5 5.45454545 10.824 2.81454545"></polyline>
                <path d="M5.5,11.8690909 L5.5,5.45454545" id="Shape"></path>
                <path d="M2.75,1.36363636 L8.25,4.09090909" id="Shape"></path>
            </g>
            <g id="extend-active" transform="translate(31.000000, 150.000000)" stroke="#0677BF" stroke-linecap="round" stroke-linejoin="round">
                <path d="M5.9895,0.245454545 L10.3895,2.42727273 C10.7633117,2.6114891 10.9997785,2.98966692 11,3.40363636 L11,8.60181818 C10.9997785,9.01578762 10.7633117,9.39396545 10.3895,9.57818182 L5.9895,11.76 C5.67964764,11.9137688 5.31485236,11.9137688 5.005,11.76 L0.605,9.57818182 C0.231545823,9.39156488 -0.00291023489,9.01108022 1.58763112e-15,8.59636364 L1.58763112e-15,3.40363636 C0.000221498911,2.98966692 0.236688277,2.6114891 0.6105,2.42727273 L5.0105,0.245454545 C5.31884794,0.0934990094 5.68115206,0.0934990094 5.9895,0.245454545 Z" id="Shape"></path>
                <polyline id="Shape" points="0.176 2.81454545 5.5 5.45454545 10.824 2.81454545"></polyline>
                <path d="M5.5,11.8690909 L5.5,5.45454545" id="Shape"></path>
                <path d="M2.75,1.36363636 L8.25,4.09090909" id="Shape"></path>
            </g>
            <g id="appearance" transform="translate(6.000000, 126.000000)" stroke="#FFFFFF" stroke-linecap="round" stroke-linejoin="round">
                <path d="M10.032,6.42285714 C11.3214468,5.08317214 11.3214468,2.91111358 10.032,1.57142857 C8.74255318,0.231743564 6.65194682,0.231743564 5.3625,1.57142857 L1.65,5.42857143 L1.65,10.2857143 L6.325,10.2857143 L10.032,6.42285714 Z" id="Shape"></path>
                <path d="M7.7,4 L0,12" id="Shape"></path>
                <path d="M8.25,8 L3.85,8" id="Shape"></path>
            </g>
            <g id="appearance-active" transform="translate(30.000000, 126.000000)" stroke="#0677BF" stroke-linecap="round" stroke-linejoin="round">
                <path d="M10.032,6.42285714 C11.3214468,5.08317214 11.3214468,2.91111358 10.032,1.57142857 C8.74255318,0.231743564 6.65194682,0.231743564 5.3625,1.57142857 L1.65,5.42857143 L1.65,10.2857143 L6.325,10.2857143 L10.032,6.42285714 Z" id="Shape"></path>
                <path d="M7.7,4 L0,12" id="Shape"></path>
                <path d="M8.25,8 L3.85,8" id="Shape"></path>
            </g>
            <g id="content" transform="translate(7.000000, 30.000000)" stroke="#FFFFFF" stroke-linecap="round" stroke-linejoin="round">
                <path d="M6.25,0 L1.25,0 C0.559644063,0 0,0.5372583 0,1.2 L0,10.8 C0,11.4627417 0.559644063,12 1.25,12 L8.75,12 C9.44035594,12 10,11.4627417 10,10.8 L10,3.6 L6.25,0 Z" id="Shape"></path>
                <polyline id="Shape" points="6.25 0 6.25 3.6 10 3.6"></polyline>
                <path d="M7.5,6.6 L2.5,6.6" id="Shape"></path>
                <path d="M7.5,9 L2.5,9" id="Shape"></path>
                <polyline id="Shape" points="3.75 4.2 3.125 4.2 2.5 4.2"></polyline>
            </g>
            <g id="content-active" transform="translate(31.000000, 30.000000)" stroke="#0677BF" stroke-linecap="round" stroke-linejoin="round">
                <path d="M6.25,0 L1.25,0 C0.559644063,0 0,0.5372583 0,1.2 L0,10.8 C0,11.4627417 0.559644063,12 1.25,12 L8.75,12 C9.44035594,12 10,11.4627417 10,10.8 L10,3.6 L6.25,0 Z" id="Shape"></path>
                <polyline id="Shape" points="6.25 0 6.25 3.6 10 3.6"></polyline>
                <path d="M7.5,6.6 L2.5,6.6" id="Shape"></path>
                <path d="M7.5,9 L2.5,9" id="Shape"></path>
                <polyline id="Shape" points="3.75 4.2 3.125 4.2 2.5 4.2"></polyline>
            </g>
            <g id="blocks" transform="translate(6.000000, 102.000000)" stroke="#FFFFFF" stroke-linecap="round" stroke-linejoin="round">
                <rect id="Rectangle-path" x="0" y="0" width="12" height="12" rx="2"></rect>
                <path d="M0,4 L12,4" id="Shape"></path>
                <path d="M4,12 L4,4" id="Shape"></path>
            </g>
            <g id="blocks-active" transform="translate(30.000000, 102.000000)" stroke="#0677BF" stroke-linecap="round" stroke-linejoin="round">
                <rect id="Rectangle-path" x="0" y="0" width="12" height="12" rx="2"></rect>
                <path d="M0,4 L12,4" id="Shape"></path>
                <path d="M4,12 L4,4" id="Shape"></path>
            </g>
            <g id="structure" transform="translate(6.000000, 54.000000)" stroke="#FFFFFF" stroke-linecap="round" stroke-linejoin="round">
                <ellipse id="Oval" cx="9.16666667" cy="1.8" rx="1.83333333" ry="1.8"></ellipse>
                <ellipse id="Oval" cx="1.83333333" cy="6" rx="1.83333333" ry="1.8"></ellipse>
                <ellipse id="Oval" cx="9.16666667" cy="10.2" rx="1.83333333" ry="1.8"></ellipse>
                <path d="M3.41611111,6.906 L7.59,9.294" id="Shape"></path>
                <path d="M7.58388889,2.706 L3.41611111,5.094" id="Shape"></path>
            </g>
            <g id="structure-active" transform="translate(30.000000, 54.000000)" stroke="#0677BF" stroke-linecap="round" stroke-linejoin="round">
                <ellipse id="Oval" cx="9.16666667" cy="1.8" rx="1.83333333" ry="1.8"></ellipse>
                <ellipse id="Oval" cx="1.83333333" cy="6" rx="1.83333333" ry="1.8"></ellipse>
                <ellipse id="Oval" cx="9.16666667" cy="10.2" rx="1.83333333" ry="1.8"></ellipse>
                <path d="M3.41611111,6.906 L7.59,9.294" id="Shape"></path>
                <path d="M7.58388889,2.706 L3.41611111,5.094" id="Shape"></path>
            </g>
            <g id="configuration" transform="translate(6.000000, 174.000000)" stroke="#FFFFFF" stroke-linecap="round" stroke-linejoin="round">
                <circle id="Oval" cx="6" cy="6" r="1.63636364"></circle>
                <path d="M10.0363636,7.63636364 C9.88781102,7.97295822 9.95909134,8.36607996 10.2163636,8.62909091 L10.2490909,8.66181818 C10.4539386,8.8664381 10.56904,9.144099 10.56904,9.43363636 C10.56904,9.72317373 10.4539386,10.0008346 10.2490909,10.2054545 C10.044471,10.4103022 9.76681009,10.5254036 9.47727273,10.5254036 C9.18773537,10.5254036 8.91007446,10.4103022 8.70545455,10.2054545 L8.67272727,10.1727273 C8.40971633,9.91545498 8.01659458,9.84417466 7.68,9.99272727 C7.35028876,10.1340372 7.13597613,10.4576493 7.13454545,10.8163636 L7.13454545,10.9090909 C7.13454545,11.5115834 6.64612882,12 6.04363636,12 C5.44114391,12 4.95272727,11.5115834 4.95272727,10.9090909 L4.95272727,10.86 C4.94408542,10.4905477 4.71047551,10.1639265 4.36363636,10.0363636 C4.02704178,9.88781102 3.63392004,9.95909134 3.37090909,10.2163636 L3.33818182,10.2490909 C3.1335619,10.4539386 2.855901,10.56904 2.56636364,10.56904 C2.27682627,10.56904 1.99916537,10.4539386 1.79454545,10.2490909 C1.58969777,10.044471 1.47459637,9.76681009 1.47459637,9.47727273 C1.47459637,9.18773537 1.58969777,8.91007446 1.79454545,8.70545455 L1.82727273,8.67272727 C2.08454502,8.40971633 2.15582534,8.01659458 2.00727273,7.68 C1.86596275,7.35028876 1.54235068,7.13597613 1.18363636,7.13454545 L1.09090909,7.13454545 C0.488416637,7.13454545 1.21115239e-16,6.64612882 0,6.04363636 C-6.05576195e-17,5.44114391 0.488416637,4.95272727 1.09090909,4.95272727 L1.14,4.95272727 C1.50945228,4.94408542 1.83607354,4.71047551 1.96363636,4.36363636 C2.11218898,4.02704178 2.04090866,3.63392004 1.78363636,3.37090909 L1.75090909,3.33818182 C1.54606141,3.1335619 1.43096001,2.855901 1.43096001,2.56636364 C1.43096001,2.27682627 1.54606141,1.99916537 1.75090909,1.79454545 C1.95552901,1.58969777 2.23318991,1.47459637 2.52272727,1.47459637 C2.81226463,1.47459637 3.08992554,1.58969777 3.29454545,1.79454545 L3.32727273,1.82727273 C3.59028367,2.08454502 3.98340542,2.15582534 4.32,2.00727273 L4.36363636,2.00727273 C4.6933476,1.86596275 4.90766023,1.54235068 4.90909091,1.18363636 L4.90909091,1.09090909 C4.90909091,0.488416637 5.39750755,1.21115239e-16 6,0 C6.60249245,0 7.09090909,0.488416637 7.09090909,1.09090909 L7.09090909,1.14 C7.09233977,1.49871432 7.3066524,1.82232639 7.63636364,1.96363636 C7.97295822,2.11218898 8.36607996,2.04090866 8.62909091,1.78363636 L8.66181818,1.75090909 C8.8664381,1.54606141 9.144099,1.43096001 9.43363636,1.43096001 C9.72317373,1.43096001 10.0008346,1.54606141 10.2054545,1.75090909 C10.4103022,1.95552901 10.5254036,2.23318991 10.5254036,2.52272727 C10.5254036,2.81226463 10.4103022,3.08992554 10.2054545,3.29454545 L10.1727273,3.32727273 C9.91545498,3.59028367 9.84417466,3.98340542 9.99272727,4.32 L9.99272727,4.36363636 C10.1340372,4.6933476 10.4576493,4.90766023 10.8163636,4.90909091 L10.9090909,4.90909091 C11.5115834,4.90909091 12,5.39750755 12,6 C12,6.60249245 11.5115834,7.09090909 10.9090909,7.09090909 L10.86,7.09090909 C10.5012857,7.09233977 10.1776736,7.3066524 10.0363636,7.63636364 Z" id="Shape"></path>
            </g>
            <g id="configuration-active" transform="translate(30.000000, 174.000000)" stroke="#0677BF" stroke-linecap="round" stroke-linejoin="round">
                <circle id="Oval" cx="6" cy="6" r="1.63636364"></circle>
                <path d="M10.0363636,7.63636364 C9.88781102,7.97295822 9.95909134,8.36607996 10.2163636,8.62909091 L10.2490909,8.66181818 C10.4539386,8.8664381 10.56904,9.144099 10.56904,9.43363636 C10.56904,9.72317373 10.4539386,10.0008346 10.2490909,10.2054545 C10.044471,10.4103022 9.76681009,10.5254036 9.47727273,10.5254036 C9.18773537,10.5254036 8.91007446,10.4103022 8.70545455,10.2054545 L8.67272727,10.1727273 C8.40971633,9.91545498 8.01659458,9.84417466 7.68,9.99272727 C7.35028876,10.1340372 7.13597613,10.4576493 7.13454545,10.8163636 L7.13454545,10.9090909 C7.13454545,11.5115834 6.64612882,12 6.04363636,12 C5.44114391,12 4.95272727,11.5115834 4.95272727,10.9090909 L4.95272727,10.86 C4.94408542,10.4905477 4.71047551,10.1639265 4.36363636,10.0363636 C4.02704178,9.88781102 3.63392004,9.95909134 3.37090909,10.2163636 L3.33818182,10.2490909 C3.1335619,10.4539386 2.855901,10.56904 2.56636364,10.56904 C2.27682627,10.56904 1.99916537,10.4539386 1.79454545,10.2490909 C1.58969777,10.044471 1.47459637,9.76681009 1.47459637,9.47727273 C1.47459637,9.18773537 1.58969777,8.91007446 1.79454545,8.70545455 L1.82727273,8.67272727 C2.08454502,8.40971633 2.15582534,8.01659458 2.00727273,7.68 C1.86596275,7.35028876 1.54235068,7.13597613 1.18363636,7.13454545 L1.09090909,7.13454545 C0.488416637,7.13454545 1.21115239e-16,6.64612882 0,6.04363636 C-6.05576195e-17,5.44114391 0.488416637,4.95272727 1.09090909,4.95272727 L1.14,4.95272727 C1.50945228,4.94408542 1.83607354,4.71047551 1.96363636,4.36363636 C2.11218898,4.02704178 2.04090866,3.63392004 1.78363636,3.37090909 L1.75090909,3.33818182 C1.54606141,3.1335619 1.43096001,2.855901 1.43096001,2.56636364 C1.43096001,2.27682627 1.54606141,1.99916537 1.75090909,1.79454545 C1.95552901,1.58969777 2.23318991,1.47459637 2.52272727,1.47459637 C2.81226463,1.47459637 3.08992554,1.58969777 3.29454545,1.79454545 L3.32727273,1.82727273 C3.59028367,2.08454502 3.98340542,2.15582534 4.32,2.00727273 L4.36363636,2.00727273 C4.6933476,1.86596275 4.90766023,1.54235068 4.90909091,1.18363636 L4.90909091,1.09090909 C4.90909091,0.488416637 5.39750755,1.21115239e-16 6,0 C6.60249245,0 7.09090909,0.488416637 7.09090909,1.09090909 L7.09090909,1.14 C7.09233977,1.49871432 7.3066524,1.82232639 7.63636364,1.96363636 C7.97295822,2.11218898 8.36607996,2.04090866 8.62909091,1.78363636 L8.66181818,1.75090909 C8.8664381,1.54606141 9.144099,1.43096001 9.43363636,1.43096001 C9.72317373,1.43096001 10.0008346,1.54606141 10.2054545,1.75090909 C10.4103022,1.95552901 10.5254036,2.23318991 10.5254036,2.52272727 C10.5254036,2.81226463 10.4103022,3.08992554 10.2054545,3.29454545 L10.1727273,3.32727273 C9.91545498,3.59028367 9.84417466,3.98340542 9.99272727,4.32 L9.99272727,4.36363636 C10.1340372,4.6933476 10.4576493,4.90766023 10.8163636,4.90909091 L10.9090909,4.90909091 C11.5115834,4.90909091 12,5.39750755 12,6 C12,6.60249245 11.5115834,7.09090909 10.9090909,7.09090909 L10.86,7.09090909 C10.5012857,7.09233977 10.1776736,7.3066524 10.0363636,7.63636364 Z" id="Shape"></path>
            </g>
            <g id="back" transform="translate(7.000000, 246.000000)" stroke="#9EABB8" stroke-linecap="round" stroke-linejoin="round">
                <path d="M11,5.5 L0,5.5" id="Shape"></path>
                <polyline id="Shape" points="5.5 11 0 5.5 5.5 0"></polyline>
            </g>
            <g id="back-active" transform="translate(31.000000, 246.000000)" stroke="#0677BF" stroke-linecap="round" stroke-linejoin="round">
                <path d="M11,5.5 L0,5.5" id="Shape"></path>
                <polyline id="Shape" points="5.5 11 0 5.5 5.5 0"></polyline>
            </g>
            <g id="help" transform="translate(9.000000, 220.000000)" fill="#FFFFFF" font-family="Roboto-Regular, Roboto" font-size="14" font-weight="normal">
                <text id="?">
                    <tspan x="0" y="13">?</tspan>
                </text>
            </g>
            <g id="help-active" transform="translate(33.000000, 220.000000)" fill="#0677BF" font-family="Roboto-Regular, Roboto" font-size="14" font-weight="normal">
                <text id="?-copy">
                    <tspan x="0" y="13">?</tspan>
                </text>
            </g>
            <g id="media" transform="translate(6.000000, 270.000000)" stroke="#FFFFFF" stroke-linecap="round" stroke-linejoin="round">
                <rect id="Rectangle-path" x="0" y="0" width="12" height="12" rx="2"></rect>
                <circle id="Oval" cx="3.66666667" cy="3.66666667" r="1"></circle>
                <polyline id="Shape" points="12 8 8.66666667 4.66666667 1.33333333 12"></polyline>
            </g>
            <g id="media-active" transform="translate(30.000000, 270.000000)" stroke="#0677BF" stroke-linecap="round" stroke-linejoin="round">
                <rect id="Rectangle-path" x="0" y="0" width="12" height="12" rx="2"></rect>
                <circle id="Oval" cx="3.66666667" cy="3.66666667" r="1"></circle>
                <polyline id="Shape" points="12 8 8.66666667 4.66666667 1.33333333 12"></polyline>
            </g>
            <g id="languages" transform="translate(6.000000, 294.000000)" stroke="#FFFFFF" stroke-linecap="round" stroke-linejoin="round">
                <circle id="Oval" cx="6" cy="6" r="6"></circle>
                <path d="M0,6 L12,6" id="Shape"></path>
                <path d="M6,1.33226763e-16 C7.50076823,1.64301174 8.35365166,3.77522031 8.4,6 C8.35365166,8.22477969 7.50076823,10.3569883 6,12 C4.49923177,10.3569883 3.64634834,8.22477969 3.6,6 C3.64634834,3.77522031 4.49923177,1.64301174 6,0 Z" id="Shape"></path>
            </g>
            <g id="languages-active" transform="translate(30.000000, 294.000000)" stroke="#0677BF" stroke-linecap="round" stroke-linejoin="round">
                <circle id="Oval" cx="6" cy="6" r="6"></circle>
                <path d="M0,6 L12,6" id="Shape"></path>
                <path d="M6,1.33226763e-16 C7.50076823,1.64301174 8.35365166,3.77522031 8.4,6 C8.35365166,8.22477969 7.50076823,10.3569883 6,12 C4.49923177,10.3569883 3.64634834,8.22477969 3.6,6 C3.64634834,3.77522031 4.49923177,1.64301174 6,0 Z" id="Shape"></path>
            </g>
            <g id="commerce" transform="translate(4.000000, 317.000000)" stroke="#FFFFFF" stroke-linecap="round" stroke-linejoin="round">
                <circle id="Oval" cx="5.09090909" cy="12.7272727" r="1"></circle>
                <circle id="Oval" cx="12.0909091" cy="12.7272727" r="1"></circle>
                <path d="M0,0 L2.54545455,0 L4.25090909,8.52090909 C4.37101443,9.12560189 4.90724432,9.55726696 5.52363636,9.54545455 L11.7090909,9.54545455 C12.3254829,9.55726696 12.8617128,9.12560189 12.9818182,8.52090909 L14,3.18181818 L3.18181818,3.18181818" id="Shape"></path>
            </g>
            <g id="commerce-active" transform="translate(28.000000, 317.000000)" stroke="#0677BF" stroke-linecap="round" stroke-linejoin="round">
                <circle id="Oval" cx="5.09090909" cy="12.7272727" r="1"></circle>
                <circle id="Oval" cx="12.0909091" cy="12.7272727" r="1"></circle>
                <path d="M0,0 L2.54545455,0 L4.25090909,8.52090909 C4.37101443,9.12560189 4.90724432,9.55726696 5.52363636,9.54545455 L11.7090909,9.54545455 C12.3254829,9.55726696 12.8617128,9.12560189 12.9818182,8.52090909 L14,3.18181818 L3.18181818,3.18181818" id="Shape"></path>
            </g>
            <g id="user" transform="translate(6.000000, 341.000000)" stroke="#FFFFFF" stroke-linecap="round" stroke-linejoin="round">
                <path d="M12,14 L12,12.4444444 C12,10.7262252 10.6568542,9.33333333 9,9.33333333 L3,9.33333333 C1.34314575,9.33333333 0,10.7262252 0,12.4444444 L0,14" id="Shape"></path>
                <ellipse id="Oval" cx="6" cy="3.11111111" rx="3" ry="3.11111111"></ellipse>
            </g>
            <g id="user-active" transform="translate(30.000000, 341.000000)" stroke="#0677BF" stroke-linecap="round" stroke-linejoin="round">
                <path d="M12,14 L12,12.4444444 C12,10.7262252 10.6568542,9.33333333 9,9.33333333 L3,9.33333333 C1.34314575,9.33333333 0,10.7262252 0,12.4444444 L0,14" id="Shape"></path>
                <ellipse id="Oval" cx="6" cy="3.11111111" rx="3" ry="3.11111111"></ellipse>
            </g>
            <g id="trigger" transform="translate(8.000000, 365.000000)" stroke="#FFFFFF" stroke-linecap="round" stroke-linejoin="round">
                <polyline id="Path-4" points="0.124023438 4.32226563 3.65668999 0.78959907 7.40813107 4.54104015"></polyline>
                <polyline id="Path-4" transform="translate(3.766077, 11.665320) rotate(-180.000000) translate(-3.766077, -11.665320) " points="0.124023438 13.3222656 3.65668999 9.78959907 7.40813107 13.5410401"></polyline>
            </g>
            <g id="trigger-active" transform="translate(32.000000, 365.000000)" stroke="#0677BF" stroke-linecap="round" stroke-linejoin="round">
                <polyline id="Path-4" points="0.124023438 4.32226563 3.65668999 0.78959907 7.40813107 4.54104015"></polyline>
                <polyline id="Path-4" transform="translate(3.766077, 11.665320) rotate(-180.000000) translate(-3.766077, -11.665320) " points="0.124023438 13.3222656 3.65668999 9.78959907 7.40813107 13.5410401"></polyline>
            </g>
            <g id="info" transform="translate(11.000000, 391.000000)" fill="#FFFFFF">
                <path d="M0.206896552,2.85135135 L1.81034483,2.85135135 L1.81034483,10 L0.206896552,10 L0.206896552,2.85135135 Z M1,0 C1.28735776,0 1.52586112,0.0765758108 1.71551724,0.22972973 C1.90517336,0.382883649 2,0.576575405 2,0.810810811 C2,1.04504622 1.90517336,1.23873797 1.71551724,1.39189189 C1.52586112,1.54504581 1.28735776,1.62162162 1,1.62162162 C0.712642241,1.62162162 0.474138879,1.54504581 0.284482759,1.39189189 C0.0948266379,1.23873797 0,1.04504622 0,0.810810811 C0,0.576575405 0.0948266379,0.382883649 0.284482759,0.22972973 C0.474138879,0.0765758108 0.712642241,0 1,0 Z" id="i"></path>
            </g>
            <g id="info-active" transform="translate(35.000000, 391.000000)" fill="#0677BF">
                <path d="M0.206896552,2.85135135 L1.81034483,2.85135135 L1.81034483,10 L0.206896552,10 L0.206896552,2.85135135 Z M1,0 C1.28735776,0 1.52586112,0.0765758108 1.71551724,0.22972973 C1.90517336,0.382883649 2,0.576575405 2,0.810810811 C2,1.04504622 1.90517336,1.23873797 1.71551724,1.39189189 C1.52586112,1.54504581 1.28735776,1.62162162 1,1.62162162 C0.712642241,1.62162162 0.474138879,1.54504581 0.284482759,1.39189189 C0.0948266379,1.23873797 0,1.04504622 0,0.810810811 C0,0.576575405 0.0948266379,0.382883649 0.284482759,0.22972973 C0.474138879,0.0765758108 0.712642241,0 1,0 Z" id="i-copy"></path>
            </g>
            <g id="close" transform="translate(6.000000, 414.000000)" stroke="#9EABB8" stroke-linecap="round" stroke-linejoin="round">
                <path d="M0.5,0.5 L12.0108644,12.0108644" id="Line"></path>
                <path d="M11.5,0.5 L0,12" id="Line-Copy"></path>
            </g>
            <g id="close-active" transform="translate(30.000000, 414.000000)" stroke="#0677BF" stroke-linecap="round" stroke-linejoin="round">
                <path d="M0.5,0.5 L12.0108644,12.0108644" id="Line-Copy-2"></path>
                <path d="M11.5,0.5 L0,12" id="Line-Copy-3"></path>
            </g>
        </g>
    </g>
</svg>