<?xml version="1.0" encoding="UTF-8"?>
<svg width="24px" height="24px" viewBox="0 0 24 24" version="1.1" xmlns="http://www.w3.org/2000/svg" xmlns:xlink="http://www.w3.org/1999/xlink">
    <!-- Generator: Sketch 49.3 (51167) - http://www.bohemiancoding.com/sketch -->
    <title>info</title>
    <desc>Created with Sketch.</desc>
    <defs></defs>
    <g id="Icons" stroke="none" stroke-width="1" fill="none" fill-rule="evenodd">
        <g id="Artboard" transform="translate(-783.000000, -520.000000)" fill="#919BAD">
            <path d="M794.274,529.594 L795.576,529.594 L795.576,537 L794.274,537 L794.274,529.594 Z M794.918,526.64 C795.151334,526.64 795.344999,526.719333 795.499,526.878 C795.653001,527.036667 795.73,527.237332 795.73,527.48 C795.73,527.722668 795.653001,527.923333 795.499,528.082 C795.344999,528.240667 795.151334,528.32 794.918,528.32 C794.684666,528.32 794.491001,528.240667 794.337,528.082 C794.182999,527.923333 794.106,527.722668 794.106,527.48 C794.106,527.237332 794.182999,527.036667 794.337,526.878 C794.491001,526.719333 794.684666,526.64 794.918,526.64 Z" id="i"></path>
        </g>
    </g>
</svg>