<?xml version="1.0" encoding="UTF-8"?>
<svg width="24px" height="24px" viewBox="0 0 24 24" version="1.1" xmlns="http://www.w3.org/2000/svg" xmlns:xlink="http://www.w3.org/1999/xlink">
    <!-- Generator: Sketch 48.2 (47327) - http://www.bohemiancoding.com/sketch -->
    <title>people</title>
    <desc>Created with Sketch.</desc>
    <defs></defs>
    <g id="Artboard" stroke="none" stroke-width="1" fill="none" fill-rule="evenodd" transform="translate(-700.000000, -256.000000)">
        <path d="M710.721771,271.213 L711.172771,271.043 L711.007771,270.723 C710.471771,269.684 710.322771,268.789 710.246771,268.051 C710.164771,267.243 710.102771,265.22 711.299771,263.862 C711.543771,263.584 711.792771,263.369 712.042771,263.187 C712.054771,262.361 711.907771,261.421 711.396771,260.842 C710.778771,260.142 709.996771,260.055 709.996771,260.055 L709.499771,260 L709.001771,260.055 C709.001771,260.055 708.218771,260.142 707.603771,260.842 C706.986771,261.544 706.886771,262.79 706.978771,263.697 C707.038771,264.28 707.148771,264.96 707.552771,265.747 C707.826771,266.28 707.893771,266.364 707.907771,266.757 C707.929771,267.352 707.934771,267.91 707.236771,268.295 C706.539771,268.678 705.672771,268.803 704.833771,269.383 C704.237771,269.793 704.124771,270.416 704.053771,270.842 L704.002771,271.252 C703.973771,271.525 704.175771,271.75 704.450771,271.75 L709.462771,271.75 C709.919771,271.51 710.352771,271.348 710.721771,271.213 Z M709.063771,275.018 C709.133771,274.591 709.247771,273.968 709.843771,273.558 C710.681771,272.977 711.551771,272.852 712.247771,272.469 C712.946771,272.084 712.940771,271.526 712.919771,270.932 C712.905771,270.539 712.839771,270.455 712.565771,269.922 C712.159771,269.135 712.050771,268.455 711.989771,267.873 C711.896771,266.964 711.997771,265.718 712.614771,265.017 C713.229771,264.317 714.012771,264.23 714.012771,264.23 L714.504771,264.175 L714.506771,264.175 L715.002771,264.23 C715.002771,264.23 715.783771,264.317 716.398771,265.017 C717.013771,265.718 717.118771,266.964 717.021771,267.872 C716.959771,268.455 716.849771,269.134 716.450771,269.921 C716.179771,270.454 716.109771,270.538 716.096771,270.931 C716.075771,271.526 716.034771,272.151 716.733771,272.535 C717.430771,272.92 718.337771,273.062 719.171771,273.639 C720.094771,274.28 719.993771,275.422 719.993771,275.422 C719.971771,275.697 719.724771,275.922 719.451771,275.922 L709.460771,275.922 C709.185771,275.922 708.983771,275.699 709.012771,275.426 L709.063771,275.018 Z" id="Shape" fill="#919BAD" fill-rule="nonzero"></path>
    </g>
</svg>