<?xml version="1.0" encoding="UTF-8"?>
<svg width="24px" height="24px" viewBox="0 0 24 24" version="1.1" xmlns="http://www.w3.org/2000/svg" xmlns:xlink="http://www.w3.org/1999/xlink">
    <!-- Generator: Sketch 48.2 (47327) - http://www.bohemiancoding.com/sketch -->
    <title>reports</title>
    <desc>Created with Sketch.</desc>
    <defs></defs>
    <g id="Artboard" stroke="none" stroke-width="1" fill="none" fill-rule="evenodd" transform="translate(-700.000000, -376.000000)">
        <path d="M708,394.5 C708,394.775 707.775,395 707.5,395 L704.5,395 C704.225,395 704,394.775 704,394.5 L704,390.25 C704,389.976 704.225,389.75 704.5,389.75 L707.5,389.75 C707.775,389.75 708,389.976 708,390.25 L708,394.5 Z M714.002,394.5 C714.002,394.775 713.777,395 713.502,395 L710.5,395 C710.225,395 710,394.775 710,394.5 L710,381.5 C710,381.225 710.225,381 710.5,381 L713.502,381 C713.777,381 714.002,381.225 714.002,381.5 L714.002,394.5 Z M720.002,394.5 C720.002,394.775 719.777,395 719.502,395 L716.502,395 C716.227,395 716.002,394.775 716.002,394.5 L716.002,385 C716.002,384.725 716.227,384.5 716.502,384.5 L719.502,384.5 C719.777,384.5 720.002,384.725 720.002,385 L720.002,394.5 Z" id="Shape" fill="#919BAD" fill-rule="nonzero"></path>
    </g>
</svg>