<?xml version="1.0" encoding="UTF-8"?>
<svg width="24px" height="24px" viewBox="0 0 24 24" version="1.1" xmlns="http://www.w3.org/2000/svg" xmlns:xlink="http://www.w3.org/1999/xlink">
    <!-- Generator: Sketch 48.2 (47327) - http://www.bohemiancoding.com/sketch -->
    <title>structure</title>
    <desc>Created with Sketch.</desc>
    <defs></defs>
    <g id="Artboard" stroke="none" stroke-width="1" fill="none" fill-rule="evenodd" transform="translate(-700.000000, -232.000000)">
        <path d="M719.002,247.277 C719.002,246.556 719.002,245.806 719.002,245.263 C719.002,243.807 718.178,243.013 716.752,243.013 C715.324,243.013 713.252,243.013 713.252,243.013 C713.113,243.013 713.002,242.901 713.002,242.763 L713.002,240.723 C713.598,240.377 714.002,239.739 714.002,239 C714.002,237.896 713.107,237 712.002,237 C710.896,237 710,237.896 710,239 C710,239.738 710.405,240.376 711,240.722 L711,242.764 C711,242.902 710.888,243.014 710.75,243.014 C710.75,243.014 708.612,243.014 707.25,243.014 C705.888,243.014 705,243.932 705,245.266 C705,245.787 705,246.543 705,247.278 C704.405,247.631 704,248.262 704,249.007 C704,250.111 704.896,251.007 706,251.007 C707.104,251.007 708,250.111 708,249.007 C708,248.275 707.595,247.63 707,247.278 L707,245.266 C707,245.127 707.112,245.016 707.25,245.016 L710.786,245.016 C710.904,245.034 711,245.126 711,245.25 L711,247.277 C710.405,247.624 710,248.26 710,249 C710,250.104 710.896,251 712.002,251 C713.107,251 714.002,250.104 714.002,249 C714.002,248.262 713.598,247.624 713.002,247.277 L713.002,245.25 C713.002,245.126 713.1,245.034 713.217,245.016 L716.752,245.016 C716.889,245.016 717.002,245.127 717.002,245.266 L717.002,247.278 C716.406,247.631 716.002,248.262 716.002,249.007 C716.002,250.111 716.898,251.007 718.002,251.007 C719.106,251.007 720.002,250.111 720.002,249.007 C720.002,248.262 719.598,247.623 719.002,247.277 Z" id="Shape" fill="#919BAD" fill-rule="nonzero"></path>
    </g>
</svg>